<svg xmlns="http://www.w3.org/2000/svg" viewBox="0 0 1200 400" width="1200" height="400">
  <defs>
    <linearGradient id="bg" x1="0%" y1="0%" x2="100%" y2="100%">
      <stop offset="0%" style="stop-color:#0a0a0a"/>
      <stop offset="100%" style="stop-color:#1a1a2e"/>
    </linearGradient>
    <linearGradient id="wave" x1="0%" y1="0%" x2="100%" y2="0%">
      <stop offset="0%" style="stop-color:#e63946;stop-opacity:0"/>
      <stop offset="40%" style="stop-color:#e63946;stop-opacity:1"/>
      <stop offset="100%" style="stop-color:#e63946;stop-opacity:0.3"/>
    </linearGradient>
  </defs>

  <!-- Background -->
  <rect width="1200" height="400" fill="url(#bg)"/>

  <!-- Subtle grid -->
  <g stroke="#ffffff" stroke-opacity="0.03" stroke-width="1">
    <line x1="0" y1="100" x2="1200" y2="100"/>
    <line x1="0" y1="200" x2="1200" y2="200"/>
    <line x1="0" y1="300" x2="1200" y2="300"/>
    <line x1="200" y1="0" x2="200" y2="400"/>
    <line x1="400" y1="0" x2="400" y2="400"/>
    <line x1="600" y1="0" x2="600" y2="400"/>
    <line x1="800" y1="0" x2="800" y2="400"/>
    <line x1="1000" y1="0" x2="1000" y2="400"/>
  </g>

  <!-- HLS waveform bars (decorative) -->
  <g fill="#e63946" opacity="0.15">
    <rect x="80"  y="170" width="8" height="60"/>
    <rect x="96"  y="155" width="8" height="90"/>
    <rect x="112" y="145" width="8" height="110"/>
    <rect x="128" y="160" width="8" height="80"/>
    <rect x="144" y="140" width="8" height="120"/>
    <rect x="160" y="150" width="8" height="100"/>
    <rect x="176" y="165" width="8" height="70"/>
  </g>
  <g fill="#e63946" opacity="0.4">
    <rect x="80"  y="185" width="8" height="30"/>
    <rect x="96"  y="178" width="8" height="44"/>
    <rect x="112" y="172" width="8" height="56"/>
    <rect x="128" y="182" width="8" height="36"/>
    <rect x="144" y="170" width="8" height="60"/>
    <rect x="160" y="176" width="8" height="48"/>
    <rect x="176" y="187" width="8" height="26"/>
  </g>

  <!-- LIVE badge -->
  <rect x="80" y="96" width="56" height="22" rx="3" fill="#e63946"/>
  <text x="108" y="111" font-family="monospace" font-size="11" font-weight="bold" fill="#ffffff" text-anchor="middle">LIVE</text>

  <!-- Main title -->
  <text x="600" y="190" font-family="-apple-system, BlinkMacSystemFont, 'Segoe UI', sans-serif"
        font-size="64" font-weight="700" fill="#ffffff" text-anchor="middle" letter-spacing="-2">
    Streamline
  </text>

  <!-- Subtitle -->
  <text x="600" y="240" font-family="-apple-system, BlinkMacSystemFont, 'Segoe UI', sans-serif"
        font-size="20" fill="#888888" text-anchor="middle" letter-spacing="1">
    Serverless live streaming · 4-hour DVR · AWS IVS + CloudFront
  </text>

  <!-- Bottom tag line -->
  <text x="600" y="330" font-family="monospace" font-size="13" fill="#444444" text-anchor="middle">
    IVS  ·  CloudFront  ·  Lambda  ·  EventBridge  ·  SSM  ·  Terraform
  </text>
</svg>
