<svg xmlns="http://www.w3.org/2000/svg" viewBox="0 0 900 506" width="900" height="506">
  <defs>
    <linearGradient id="bg" x1="0%" y1="0%" x2="100%" y2="100%">
      <stop offset="0%" style="stop-color:#0a0a0a"/>
      <stop offset="100%" style="stop-color:#1a1a2e"/>
    </linearGradient>
  </defs>

  <!-- Background -->
  <rect width="900" height="506" fill="url(#bg)"/>

  <!-- Subtle grid -->
  <g stroke="#ffffff" stroke-opacity="0.03" stroke-width="1">
    <line x1="0" y1="126" x2="900" y2="126"/>
    <line x1="0" y1="253" x2="900" y2="253"/>
    <line x1="0" y1="380" x2="900" y2="380"/>
    <line x1="150" y1="0" x2="150" y2="506"/>
    <line x1="300" y1="0" x2="300" y2="506"/>
    <line x1="450" y1="0" x2="450" y2="506"/>
    <line x1="600" y1="0" x2="600" y2="506"/>
    <line x1="750" y1="0" x2="750" y2="506"/>
  </g>

  <!-- HLS waveform bars (decorative) -->
  <g fill="#e63946" opacity="0.15">
    <rect x="60"  y="215" width="8" height="60"/>
    <rect x="74"  y="200" width="8" height="90"/>
    <rect x="88"  y="190" width="8" height="110"/>
    <rect x="102" y="205" width="8" height="80"/>
    <rect x="116" y="185" width="8" height="120"/>
    <rect x="130" y="195" width="8" height="100"/>
    <rect x="144" y="210" width="8" height="70"/>
  </g>
  <g fill="#e63946" opacity="0.4">
    <rect x="60"  y="230" width="8" height="30"/>
    <rect x="74"  y="223" width="8" height="44"/>
    <rect x="88"  y="217" width="8" height="56"/>
    <rect x="102" y="227" width="8" height="36"/>
    <rect x="116" y="215" width="8" height="60"/>
    <rect x="130" y="221" width="8" height="48"/>
    <rect x="144" y="232" width="8" height="26"/>
  </g>

  <!-- LIVE badge -->
  <rect x="60" y="130" width="56" height="22" rx="3" fill="#e63946"/>
  <text x="88" y="145" font-family="monospace" font-size="11" font-weight="bold" fill="#ffffff" text-anchor="middle">LIVE</text>

  <!-- Main title -->
  <text x="450" y="250"
        font-family="-apple-system, BlinkMacSystemFont, 'Segoe UI', sans-serif"
        font-size="64" font-weight="700" fill="#ffffff" text-anchor="middle" letter-spacing="-2">
    Streamline
  </text>

  <!-- Subtitle -->
  <text x="450" y="302"
        font-family="-apple-system, BlinkMacSystemFont, 'Segoe UI', sans-serif"
        font-size="20" fill="#888888" text-anchor="middle" letter-spacing="1">
    Serverless live streaming · 4-hour DVR · AWS IVS + CloudFront
  </text>

  <!-- Bottom tag line -->
  <text x="450" y="420"
        font-family="monospace" font-size="13" fill="#444444" text-anchor="middle">
    IVS  ·  CloudFront  ·  Lambda  ·  EventBridge  ·  SSM  ·  Terraform
  </text>
</svg>
